<?xml version="1.0" encoding="UTF-8" standalone="no"?>
<svg
   xmlns:dc="http://purl.org/dc/elements/1.1/"
   xmlns:cc="http://creativecommons.org/ns#"
   xmlns:rdf="http://www.w3.org/1999/02/22-rdf-syntax-ns#"
   xmlns:svg="http://www.w3.org/2000/svg"
   xmlns="http://www.w3.org/2000/svg"
   viewBox="0 0 1417.3228 1417.3228"
   id="svg2"
   height="1417.3228"
   width="1417.3228"
   version="1.1">
  <metadata
     id="metadata92">
    <rdf:RDF>
      <cc:Work
         rdf:about="">
        <dc:format>image/svg+xml</dc:format>
        <dc:type
           rdf:resource="http://purl.org/dc/dcmitype/StillImage" />
      </cc:Work>
    </rdf:RDF>
  </metadata>
  <defs
     id="defs90" />
  <g
     id="g4">
    <path
       id="path6"
       style="fill:#d41c1e;fill-rule:evenodd"
       d="m 975.4844,642.4176 c -7.1034,-35.0915 -14.2062,-70.183 -21.3096,-105.2745 3.7382,6.3545 7.4758,12.7089 11.7746,21.3067 4.2989,8.5971 9.1578,19.4369 14.2711,33.3798 5.1132,13.9429 10.4795,30.9888 15.8465,48.0341 -6.8801,0.8543 -13.7607,1.7087 -20.5826,2.5539 z m -18.4185,2.276 c -1.7643,-20.4178 -3.5293,-40.835 -4.8389,-56.1699 -1.3091,-15.3355 -2.164,-25.5886 -2.7247,-35.0667 -0.5606,-9.4787 -0.8277,-18.183 -1.0947,-26.8873 7.9475,38.7492 15.8955,77.499 23.843,116.2481 -5.1078,0.6327 -10.1774,1.2588 -15.1847,1.8758 z m -16.6039,2.0368 c 0.0854,-16.771 0.1707,-33.5427 0.4801,-50.7121 0.31,-17.1701 0.8441,-34.7385 1.3248,-47.4741 0.4807,-12.7362 0.9076,-20.6394 1.3351,-28.5427 3.5614,41.6779 7.1222,83.3563 10.6836,125.0342 -4.6737,0.5752 -9.288,1.1413 -13.8236,1.6947 z m -16.9678,2.0574 c 3.9525,-34.8657 7.9044,-69.7313 10.3342,-91.3292 2.4304,-21.5979 3.3386,-29.9286 4.0591,-34.3873 0.7211,-4.4587 1.2545,-5.0466 1.0832,16.2782 -0.1707,21.3242 -1.0475,64.5611 -1.9236,107.7975 -4.6137,0.5618 -9.139,1.1098 -13.5529,1.6408 z m -19.001,2.2572 c 9.9388,-44.7494 19.8771,-89.4982 24.8462,-111.1518 4.9697,-21.6542 4.9697,-20.212 4.9165,-17.1682 -0.0533,3.0437 -0.1605,7.6889 -1.1753,17.0071 -1.0141,9.3183 -2.9365,23.309 -5.3136,42.3391 -2.3771,19.03 -5.2089,43.0995 -8.0407,67.1689 -5.2622,0.6303 -10.353,1.2339 -15.2331,1.8049 z m -25.7339,2.9142 c -16.0863,-43.745 -32.1719,-87.4899 -40.4554,-110.0566 -8.2835,-22.5666 -8.7637,-23.955 -8.9508,-25.023 -0.187,-1.0681 -0.0799,-1.8152 0.2671,-2.2324 0.3469,-0.4178 0.9342,-0.505 2.3226,-0.5486 1.3883,-0.0436 3.5777,-0.0436 6.7232,-0.0436 3.146,0 7.2481,0 11.3502,0 3.3567,10.878 16.7456,19.0059 32.7507,19.0059 15.6842,0 28.8551,-7.8058 32.5364,-18.355 3.6655,0 7.3305,0 9.7506,0 2.42,0 3.5947,0 4.449,0.149 0.8543,0.1483 1.3883,0.4462 1.682,0.8888 0.2937,0.442 0.3475,1.0293 -0.2404,3.539 -0.5873,2.5097 -1.8152,6.9424 -6.9163,28.958 -5.1011,22.0157 -14.0749,61.615 -23.0486,101.2142 -4.3843,0.5098 -8.5832,0.9906 -12.5666,1.438 -3.3659,0.3784 -6.5779,0.7326 -9.6537,1.0663 z m -20.6709,2.1373 c -10.1702,-40.0249 -20.3403,-80.0498 -25.9059,-102.4118 -5.5655,-22.362 -6.527,-27.0617 -7.1143,-30.7194 -0.5873,-3.6576 -0.801,-6.2745 -0.4541,-6.5143 0.3469,-0.2403 1.2551,1.8952 3.5245,7.7428 2.2693,5.8471 5.9009,15.4057 11.0269,29.3698 5.1265,13.9641 11.7486,32.3335 18.0243,49.862 6.2758,17.5285 12.2064,34.2154 18.1364,50.9029 -6.26,0.6684 -11.9496,1.2491 -17.2378,1.768 z m -566.0431,-50.892 c 51.4036,-196.2821 218.434,-340.0981 416.5508,-340.0981 190.5241,0 352.3008,133.0028 410.1364,317.7664 -28.7128,-16.3254 -57.4263,-32.6508 -82.6497,-46.7408 -25.2229,-14.09 -46.957,-25.9452 -60.0401,-33.1274 -13.0825,-7.1821 -17.5146,-9.6924 -21.8667,-12.3353 -4.3522,-2.6435 -8.6238,-5.4202 -11.8813,-7.583 -3.2574,-2.1627 -5.5007,-3.7109 -8.9452,-5.9003 -3.444,-2.1894 -8.0898,-5.02 -13.4567,-7.503 -5.3663,-2.4831 -11.4544,-4.6186 -17.3014,-6.0336 -5.8471,-1.4156 -11.4544,-2.1095 -16.5004,-2.2966 -5.0461,-0.1871 -9.532,0.1332 -14.4182,0.9609 -4.8856,0.8277 -10.1726,2.1628 -15.8598,4.1923 -5.6866,2.029 -11.7747,4.7524 -18.1291,8.4373 -6.3545,3.6843 -12.9766,8.3301 -16.2607,10.8132 -3.284,2.483 -3.2302,2.8033 -2.9631,5.4468 0.267,2.6429 0.7471,7.6096 1.3877,13.2969 0.6412,5.6866 1.4422,12.0949 2.4298,17.8887 0.9881,5.7938 2.1633,10.9736 4.406,20.479 2.2427,9.5053 5.5534,23.3356 9.1578,38.2345 3.6044,14.8983 7.5031,30.8653 10.68,43.5984 3.1769,12.7331 5.6333,22.233 8.0891,31.7335 -6.0414,0.5807 -11.576,1.0832 -16.8824,1.5507 -2.8627,-19.9492 -5.7254,-39.899 -7.7174,-53.5579 -1.992,-13.6595 -3.1134,-21.0287 -3.7546,-25.3004 -0.6405,-4.2722 -0.8004,-5.4474 -0.9875,-3.7115 -0.1871,1.7353 -0.4008,6.3811 -6e-4,12.7628 0.4008,6.3811 1.4156,14.4975 3.0982,26.4647 1.6826,11.9672 4.0331,27.7852 6.3835,43.6032 -3.3046,0.2876 -6.5403,0.5643 -9.7753,0.8416 0.0532,5.0727 0.1065,10.146 0.1598,15.2186 28.3556,-2.6162 56.7106,-5.2331 85.84,-7.4758 29.1299,-2.2426 59.0337,-4.1117 88.9375,-5.9808 2.3499,12.2287 4.6991,24.4569 6.1407,31.8528 1.4423,7.3958 1.9757,9.9594 2.4831,11.3211 0.5074,1.3617 0.9881,1.5216 2.6435,1.8958 1.6554,0.3735 4.486,0.9609 8.0365,1.2545 3.5511,0.2937 7.8233,0.2937 11.7213,0.0533 3.8981,-0.2404 7.4226,-0.7205 11.2673,-1.9484 3.8448,-1.2285 8.0098,-3.2048 11.3206,-4.9401 3.3107,-1.7353 5.7671,-3.2308 8.2235,-4.7257 -1.7619,-5.5002 -3.5244,-11.0003 -5.7938,-17.4347 -2.2693,-6.4349 -5.046,-13.8042 -7.8227,-21.1734 28.9029,-2.0314 57.8059,-4.0627 86.7082,-6.0941 2.0126,12.3135 3.5802,24.7936 4.6828,37.4195 4.3364,2.5019 8.6728,5.0037 13.9555,7.6121 5.2834,2.6077 11.5137,5.3227 16.653,7.1694 5.1399,1.8467 9.1893,2.8257 13.7074,3.3822 4.518,0.5564 9.5041,0.6896 14.4908,0.8234 0,-0.221 6e-4,-0.4426 6e-4,-0.6636 0,-272.7584 -219.2611,-493.8723 -489.7339,-493.8723 -269.2334,0 -487.725,219.0928 -489.72,490.1274 3.4143,-1.3786 6.8279,-2.7579 11.6723,-4.9158 4.8444,-2.1579 11.119,-5.0951 17.8161,-7.6314 6.6972,-2.5369 13.8176,-4.6724 18.8503,-5.7865 5.0321,-1.1147 7.9771,-1.2073 10.9221,-1.3 2.2161,-22.7416 5.9397,-44.997 11.0621,-66.6482 0.9057,-3.8266 1.8545,-7.6344 2.8463,-11.4223 z m 820.2691,21.1717 c -48.2539,-38.5694 -96.5078,-77.1393 -144.7617,-115.7087 13.243,8.0099 26.4865,16.0203 40.5838,25.1248 14.0979,9.1045 29.0494,19.3044 49.1972,33.0837 20.1484,13.7794 45.4924,31.1396 70.8363,48.4992 0.5201,2.213 1.0251,4.4326 1.5155,6.6572 -5.7901,0.781 -11.5809,1.5627 -17.3711,2.3438 z M 843.5461,499.0563 c 6.3284,-11.1988 21.5052,-19.0875 39.2208,-19.0875 17.7156,0 32.8924,7.8887 39.2208,19.0875 -3.2483,0 -6.4973,0 -9.7457,0 -5.6933,-7.5641 -16.7589,-12.6955 -29.4751,-12.6955 -12.7162,0 -23.7818,5.1314 -29.4751,12.6955 -3.2484,0 -6.4974,0 -9.7457,0 z m 164.1223,26.0439 c 27.1398,15.0739 69.8851,38.9732 112.6304,62.8731 2.4038,7.982 4.6144,16.0602 6.6257,24.2257 -34.7009,-23.6444 -69.4019,-47.2888 -94.9493,-64.3172 -25.5474,-17.029 -41.9412,-27.4419 -52.8349,-34.7306 -10.8937,-7.2893 -16.2867,-11.455 -21.6802,-15.62 11.5343,6.2478 23.0686,12.4951 50.2083,27.569 z m 14.6459,66.6816 c -6.4883,-13.6172 -13.163,-25.5783 -19.8384,-37.5401 9.0779,8.1703 18.1564,16.3406 29.0767,26.8074 10.9203,10.4662 23.6825,23.2284 32.514,31.8322 8.8314,8.6032 13.7309,13.0468 18.6311,17.491 -13.7637,1.857 -27.5286,3.7146 -41.2928,5.5716 -6.3012,-15.2725 -12.6024,-30.545 -19.0906,-44.1621 z m 64.2445,38.0698 c -28.0275,-26.805 -56.0555,-53.6106 -72.1254,-68.9085 -16.0693,-15.2985 -20.1811,-19.09 -23.3586,-22.6944 -3.1769,-3.6044 -5.4196,-7.0223 -7.6623,-10.4396 6.5682,4.9128 13.1364,9.8257 23.6293,18.183 10.4935,8.3568 24.911,20.1581 42.2452,34.2463 17.3347,14.0882 37.5848,30.4632 57.8355,46.8389 -6.854,0.9246 -13.7098,1.8497 -20.5637,2.7743 z" />
    <path
       id="path8"
       style="fill:#d41c1e;fill-rule:evenodd"
       d="m 673.8303,339.4841 c 4.9395,-9.3449 9.4781,-16.9272 13.4028,-22.988 3.9253,-6.0614 7.236,-10.6001 10.6267,-13.4034 3.3913,-2.804 6.8618,-3.872 9.8256,-3.7649 2.9638,0.1066 5.4203,1.3878 7.8767,3.711 2.4564,2.3226 4.9128,5.6872 9.4781,13.2169 4.5658,7.5291 11.2412,19.2232 17.0084,30.2507 5.7671,11.0269 10.626,21.386 15.1114,33.0008 4.4859,11.6142 8.5977,24.4836 12.3353,38.7952 3.7382,14.311 7.1028,30.0636 9.9861,44.8826 2.8839,14.8184 5.2864,28.7019 7.2887,43.0934 2.0029,14.391 3.605,29.2899 4.9401,44.856 1.3357,15.5662 2.4043,31.7996 2.9916,43.6547 0.588,11.8546 0.6951,19.331 0.3742,28.9962 -0.3203,9.6652 -1.0674,21.5204 -2.0822,31.9334 -1.0148,10.4129 -2.296,19.3836 -3.5778,28.3549 5.7563,0.568 16.5622,4.7203 21.627,7.6896 1.1213,-12.3354 2.2427,-24.6707 3.0704,-38.4743 0.8276,-13.8042 1.3617,-29.0767 1.3084,-45.3634 -0.0533,-16.2872 -0.6945,-33.5887 -1.7892,-50.7836 -1.0947,-17.1948 -2.6429,-34.2825 -5.2598,-53.2926 -2.6168,-19.0107 -6.3017,-39.9432 -10.3336,-59.2203 -4.0318,-19.2771 -8.41,-36.8994 -13.163,-52.0647 -4.7524,-15.1654 -9.8783,-27.8749 -15.6455,-40.3701 -5.7671,-12.4957 -12.1755,-24.7778 -18.0498,-34.71 -5.8737,-9.9328 -11.2134,-17.5152 -15.7526,-22.9087 -4.5393,-5.3936 -8.2768,-8.5972 -12.5757,-10.9737 -4.2989,-2.3765 -9.1578,-3.9247 -13.6704,-4.2716 -4.512,-0.3475 -8.6777,0.5068 -12.5491,1.8152 -3.8714,1.3079 -7.4491,3.0704 -10.5467,5.2598 -3.0971,2.1894 -5.7133,4.8056 -10.146,10.7599 -4.4321,5.9542 -10.6793,15.2458 -16.5803,25.1786 -5.9004,9.9322 -11.4544,20.505 -16.5809,31.986 -5.126,11.4811 -9.8257,23.8703 -13.7776,36.9001 -3.9513,13.0292 -7.1549,26.6996 -10.2259,40.6104 -3.0703,13.9108 -6.0069,28.0613 -8.4899,42.7731 -2.4831,14.7119 -4.5126,29.9837 -6.1147,44.9892 -1.6015,15.0055 -2.7767,29.744 -3.7116,43.1474 -0.9342,13.4033 -1.6281,25.4717 -1.949,36.926 -0.3203,11.4544 -0.2664,22.2942 0.2404,32.7072 0.5074,10.4129 1.4689,20.399 2.4031,29.2898 0.9343,8.8908 1.8419,16.6863 2.7495,24.4824 2.0289,-0.6945 4.0585,-1.3884 6.5682,-1.762 2.5096,-0.3741 5.5001,-0.428 7.876,-0.3475 2.3765,0.0799 4.139,0.2936 5.9009,0.5074 -0.9076,-10.7333 -1.8158,-21.4671 -2.6435,-32.8143 -0.8277,-11.3478 -1.5748,-23.309 -1.8152,-38.0474 -0.2404,-14.7385 0.0266,-32.2531 1.1746,-50.2217 1.148,-17.9693 3.1776,-36.3927 5.5534,-54.4146 2.3765,-18.0226 5.1,-35.6449 8.4906,-52.8659 3.3913,-17.2215 7.4492,-34.0428 11.4271,-48.1667 3.9786,-14.1245 7.8773,-25.5516 12.4958,-36.8189 4.6192,-11.2673 9.9595,-22.3747 14.8989,-31.7196 z" />
    <path
       id="path10"
       style="fill:#d41c1e;fill-rule:evenodd"
       d="m 612.9711,340.6503 c -0.3415,-5.9525 -0.9107,-9.2565 -2.3917,-12.7877 -1.481,-3.5317 -3.8732,-7.2905 -6.9205,-10.2809 -3.0474,-2.9905 -6.7499,-5.2119 -11.9618,-6.8068 -5.2119,-1.5948 -11.9333,-2.5635 -18.5124,-2.7627 -6.5785,-0.1993 -13.0153,0.3699 -18.5687,1.7371 -5.5534,1.3671 -10.224,3.5317 -13.8127,6.266 -3.588,2.7337 -6.0947,6.0378 -7.9178,10.3385 -1.8224,4.3001 -2.9613,9.5974 -3.3888,16.5749 -0.4275,6.9775 -0.1423,15.6357 0.6836,24.5501 0.8258,8.9138 2.193,18.0844 3.9301,26.2583 1.7377,8.1739 3.8448,15.3506 6.9206,23.8096 3.0758,8.4585 7.1204,18.1982 10.5377,25.4039 3.4179,7.2052 6.2085,11.8764 8.1739,16.2625 1.9653,4.3854 3.1042,8.4869 3.3591,12.434 0.5765,8.9241 -1.3574,19.3576 -0.6175,28.3792 0.3657,4.4587 1.8073,5.4202 1.8073,41.4659 0,35.4203 0,104.7163 0,171.2573 -7.7428,3.582 -14.3292,6.3854 -19.9807,7.9208 -5.6515,1.5349 -10.3681,1.8019 -15.9754,1.0899 -5.6067,-0.712 -12.1041,-2.4025 -18.6898,-4.7166 -6.5857,-2.3142 -13.2611,-5.2507 -20.1139,-8.5881 -6.8527,-3.338 -13.8841,-7.0756 -21.7601,-9.2559 -7.8766,-2.1809 -16.5985,-2.8039 -24.6525,-2.0471 -8.0547,0.7562 -15.442,2.8917 -23.2739,6.0517 -7.8318,3.1594 -16.1086,7.342 -23.8956,10.7242 -7.7876,3.3822 -15.086,5.9627 -22.25,6.9418 -7.1646,0.979 -14.196,0.356 -20.2919,-0.9791 -6.0965,-1.3351 -11.2588,-3.3816 -17.5327,-6.4519 -6.2745,-3.071 -13.6619,-7.1646 -21.3599,-10.1908 -7.6987,-3.0261 -15.7091,-4.9836 -22.0109,-5.9137 -6.3017,-0.9306 -10.8949,-0.8325 -17.5696,0.2798 -6.6754,1.1122 -15.4312,3.2399 -25.1042,6.7074 -9.6737,3.4676 -20.264,8.275 -30.8544,13.0831 0.1617,7.6338 0.4953,15.2259 0.9966,22.7707 10.2574,-4.6561 20.4875,-9.2722 29.8578,-12.6308 9.673,-3.4675 18.4288,-5.5952 25.1042,-6.7074 6.6747,-1.1123 11.2679,-1.2104 17.5696,-0.2798 6.3018,0.93 14.3122,2.8875 22.0109,5.9137 7.698,3.0262 15.0854,7.1198 21.3599,10.1907 6.2739,3.0704 11.4362,5.1169 17.5327,6.452 6.0959,1.3351 13.1273,1.9581 20.2919,0.979 7.164,-0.979 14.4624,-3.5596 22.25,-6.9417 7.787,-3.3822 16.0638,-7.5648 23.8956,-10.7242 7.8319,-3.16 15.2192,-5.2955 23.2739,-6.0517 8.054,-0.7569 16.7759,-0.1338 24.6525,2.0471 7.876,2.1803 14.9074,5.9179 21.7601,9.2559 6.8528,3.3374 13.5282,6.2739 20.1139,8.588 6.5857,2.3142 13.0831,4.0046 18.6898,4.7167 5.6073,0.712 10.3239,0.445 15.9754,-1.0899 5.6515,-1.5355 12.2379,-4.3388 19.9807,-7.9208 7.7428,-3.5826 16.6427,-7.9432 24.5187,-10.947 7.8766,-3.0037 14.73,-4.6506 21.6269,-5.0732 6.8976,-0.4227 13.84,0.3784 20.4257,1.78 6.5858,1.4017 12.8161,3.4046 18.1334,5.7854 5.3179,2.3807 9.7239,5.1392 13.9731,7.4309 4.2499,2.2918 8.3441,4.1167 12.8603,5.5849 4.5169,1.4683 9.4569,2.5812 15.1974,3.0262 5.7405,0.445 12.2815,0.2222 17.6884,-0.5564 5.4068,-0.7787 9.6785,-2.1137 14.4399,-4.3165 4.7615,-2.2027 10.0128,-5.2736 16.0197,-8.255 6.0075,-2.9813 12.7719,-5.8737 19.7578,-7.7204 6.9866,-1.8467 14.196,-2.6477 20.7375,-2.6029 6.5416,0.0442 12.4153,0.9342 17.3323,2.1137 4.9177,1.1788 8.8781,2.6477 14.4848,5.2731 5.6073,2.6253 12.8603,6.4077 19.446,9.2782 6.5864,2.87 12.5049,4.8281 18.223,6.0966 5.7187,1.2678 11.2364,1.8467 16.3091,1.5355 5.0732,-0.3119 9.7015,-1.5137 14.0179,-3.16 4.3164,-1.6463 8.3211,-3.7382 15.0182,-6.8976 6.6978,-3.1593 16.0869,-7.3868 23.7183,-10.0563 7.632,-2.6702 13.5063,-3.783 18.935,-4.2946 5.4293,-0.5117 10.4129,-0.4233 15.686,0.356 5.2737,0.7786 10.8362,2.2469 16.3097,4.116 5.4735,1.8691 10.8573,4.1384 16.2642,6.6971 5.4069,2.5588 10.8356,5.4069 15.9973,7.4764 5.1623,2.069 10.0575,3.3598 14.5962,4.1161 4.5392,0.7562 8.7218,0.979 13.4391,0.6678 4.7172,-0.3118 9.9679,-1.1577 14.7294,-2.5811 4.7614,-1.4241 9.0336,-3.427 15.5304,-6.564 6.4967,-3.1376 15.2192,-7.4092 22.0719,-9.9903 6.8528,-2.5812 11.8371,-3.4712 16.9097,-4.0494 5.0733,-0.5789 10.235,-0.8453 15.0412,-0.5559 4.8063,0.2889 9.2559,1.1347 14.1954,2.6254 4.9395,1.4907 10.3687,3.6262 16.4205,6.3629 6.0517,2.7368 12.727,6.0747 17.9777,8.4113 5.2513,2.3359 9.0779,3.6704 13.0607,4.5386 3.9828,0.8677 8.1212,1.2679 11.946,1.3109 3.4204,0.0381 6.59,-0.2095 9.733,-0.4881 0.5486,-7.7258 0.9222,-15.5019 1.1135,-23.3222 -3.5111,0.3148 -7.0217,0.6303 -10.8465,0.5873 -3.8248,-0.043 -7.9632,-0.4432 -11.946,-1.3109 -3.9828,-0.8682 -7.8094,-2.2027 -13.0607,-4.5386 -5.2507,-2.3365 -11.926,-5.6745 -17.9777,-8.4113 -6.0518,-2.7367 -11.481,-4.8722 -16.4205,-6.3629 -4.9395,-1.4907 -9.3891,-2.3365 -14.1954,-2.6253 -4.8062,-0.2895 -9.9679,-0.023 -15.0412,0.5558 -5.0726,0.5782 -10.0569,1.4683 -16.9097,4.0494 -6.8527,2.5811 -15.5752,6.8528 -22.0719,9.9903 -6.4968,3.137 -10.769,5.1399 -15.5304,6.564 -4.7615,1.4235 -10.0122,2.2693 -14.7294,2.5811 -4.7173,0.3112 -8.8999,0.0884 -13.4391,-0.6678 -4.5387,-0.7563 -9.4339,-2.0471 -14.5962,-4.116 -5.1617,-2.0695 -10.5904,-4.9177 -15.9973,-7.4764 -5.4069,-2.5588 -10.7907,-4.8281 -16.2642,-6.6972 -5.4735,-1.8691 -11.036,-3.3374 -16.3097,-4.116 -5.2731,-0.7792 -10.2567,-0.8676 -15.686,-0.356 -5.4287,0.5116 -11.303,1.6245 -18.935,4.2946 -7.6314,2.6695 -17.0205,6.897 -23.7183,10.0563 -6.6971,3.1594 -10.7018,5.2513 -15.0182,6.8976 -4.3164,1.6463 -8.9447,2.8482 -14.0179,3.16 -5.0727,0.3112 -10.5904,-0.2676 -16.3091,-1.5355 -5.7181,-1.2685 -11.6366,-3.2266 -18.223,-6.0965 -6.5857,-2.8706 -13.8387,-6.653 -19.446,-9.2783 -5.6067,-2.6254 -9.5671,-4.0942 -14.4848,-5.2731 -4.917,-1.1795 -10.7907,-2.0695 -17.3323,-2.1137 -6.5415,-0.0448 -13.7509,0.7562 -20.7375,2.6029 -6.9859,1.8467 -13.7503,4.7391 -19.7578,7.7204 -6.0069,2.9814 -11.2582,6.0524 -16.0197,8.2551 -4.7614,2.2027 -9.0331,3.5378 -14.4399,4.3164 -5.4069,0.7786 -11.9479,1.0015 -17.6884,0.5564 -5.7405,-0.445 -10.6805,-1.5579 -15.1974,-3.0261 -4.5162,-1.4683 -8.6104,-3.2932 -12.8603,-5.5849 -4.2492,-2.2918 -8.6552,-5.0503 -13.9731,-7.431 -5.3173,-2.3807 -11.5476,-4.3837 -18.1334,-5.7853 -6.5857,-1.4017 -13.5281,-2.2027 -20.4257,-1.7801 -6.8969,0.4226 -13.7509,2.0695 -21.6269,5.0732 -3.4676,1.3218 -7.1337,2.9087 -10.812,4.5744 0,-49.1839 0,-102.3464 0,-132.7479 0,-31.4822 0,-43.843 -0.0284,-51.162 -0.0285,-7.3196 -0.0854,-9.598 0.1423,-11.7056 1.464,-13.5166 2.0622,-20.7 1.3956,-34.8021 -0.1992,-4.2153 -0.2561,-5.9815 0.399,-8.203 0.6551,-2.2215 2.0217,-4.8983 4.4993,-10.1102 2.4782,-5.2119 6.0662,-12.9583 9.2559,-19.9928 3.1902,-7.0344 5.9808,-13.3573 8.7152,-21.5591 2.7343,-8.2024 5.4111,-18.2847 7.262,-27.3129 1.8516,-9.0283 2.8772,-17.0024 3.3326,-25.2901 0.4559,-8.2878 0.3414,-16.8891 -6e-4,-22.8409 z m -35.7503,23.1848 c 0.5788,5.1211 1.4083,16.3109 2.1325,26.7595 0.7235,10.4487 1.3405,20.1575 1.7456,27.9015 0.4056,7.7441 0.5988,13.5239 0.5855,17.6339 -0.0134,4.1105 -0.2338,6.5512 -0.5232,7.6035 -0.2894,1.0511 -0.6484,0.7133 -1.0547,-0.3166 -0.4069,-1.0306 -0.8604,-2.7537 -1.372,-5.2501 -0.5104,-2.4964 -1.0771,-5.7647 -1.521,-11.8667 -0.4426,-6.102 -0.761,-15.0376 -0.9451,-26.4568 -0.1841,-11.4211 -0.2325,-25.3264 -0.0933,-32.7526 0.1387,-7.4267 0.4669,-8.3755 1.0457,-3.2556 z m -9.5974,0.1296 c 0.0267,5.1532 -0.3475,16.3672 -0.7477,26.8334 -0.4003,10.4662 -0.8277,20.1853 -1.2552,27.9281 -0.4268,7.7428 -0.8537,13.51 -1.3078,17.5951 -0.4541,4.0851 -0.9343,6.4883 -1.3351,7.503 -0.4002,1.0142 -0.7211,0.6406 -1.0148,-0.4274 -0.2936,-1.0681 -0.5606,-2.8306 -0.801,-5.3669 -0.2404,-2.5364 -0.4535,-5.8471 -0.2404,-11.9612 0.2138,-6.1147 0.855,-15.0321 1.8958,-26.406 1.0414,-11.3744 2.4836,-25.2053 3.4179,-32.5739 0.9342,-7.3692 1.3617,-8.2774 1.3883,-3.1242 z" />
    <path
       id="path12"
       style="fill:#d41c1e;fill-rule:evenodd"
       d="m 699.7023,450.3441 c -13.4646,10.0012 -26.9285,20.0031 -40.3931,30.0043 -1.3235,-0.6454 -2.8112,-1.0081 -4.383,-1.0081 -5.5292,0 -10.0121,4.4829 -10.0121,10.0121 0,5.5292 4.4829,10.0121 10.0121,10.0121 4.0785,0 7.5878,-2.4388 9.1481,-5.9379 14.2789,0 28.5578,0 42.8367,0 14.279,0 28.5579,0 42.8368,0 1.5603,3.4991 5.0696,5.9379 9.1481,5.9379 5.5292,0 10.0121,-4.4829 10.0121,-10.0121 0,-5.5292 -4.4829,-10.0121 -10.0121,-10.0121 -1.5718,0 -3.0595,0.3627 -4.383,1.0081 -13.4646,-10.0012 -26.9285,-20.0031 -40.3931,-30.0043 9.974,-7.2621 19.948,-14.5247 29.922,-21.7868 0.8047,0.2083 1.6487,0.3197 2.5187,0.3197 5.5292,0 10.0122,-4.4829 10.0122,-10.0121 0,-5.5292 -4.483,-10.0122 -10.0122,-10.0122 -3.9846,0 -7.4261,2.3281 -9.0373,5.6976 -10.204,0 -20.4081,0 -30.6122,0 -10.204,0 -20.4081,0 -30.6121,0 -1.6112,-3.3695 -5.0527,-5.6976 -9.0374,-5.6976 -5.5292,0 -10.0121,4.483 -10.0121,10.0122 0,5.5292 4.4829,10.0121 10.0121,10.0121 0.8701,0 1.7141,-0.1114 2.5188,-0.3197 9.974,7.2621 19.948,14.5247 29.922,21.7868 z m -30.1176,34.443 c 12.4419,-9.6119 24.8844,-19.2244 37.3263,-28.8363 12.4419,9.6119 24.8844,19.2244 37.3263,28.8363 -12.4279,0 -24.8553,0 -37.2833,0 l -0.0859,0 c -12.428,0 -24.8554,0 -37.2834,0 z m 37.3263,-39.8899 c -8.9174,-7.1555 -17.8354,-14.3103 -26.7529,-21.4658 8.9175,0 17.8355,0 26.7529,0 8.9175,0 17.8355,0 26.7529,0 -8.9174,7.1555 -17.8354,14.3103 -26.7529,21.4658 z" />
    <path
       id="path14"
       style="fill:#d41c1e;fill-rule:evenodd"
       d="m 533.3663,708.0196 c 0,-93.0227 0,-186.0454 0,-279.0681 0,-3.338 -2.7228,-6.0608 -6.0608,-6.0608 -18.0547,0 -36.1099,0 -54.1646,0 -3.338,0 -6.0608,2.7228 -6.0608,6.0608 0,53.2454 0,106.4921 0,159.7375 0,1.0002 -0.8162,1.8164 -1.8164,1.8164 -1.7928,0 -3.5856,0 -5.3784,0 -1.0003,0 -1.8165,-0.8162 -1.8165,-1.8164 0,-33.6886 0,-67.376 0,-101.0646 0,-3.335 -2.7197,-6.0548 -6.0547,-6.0548 -16.6118,0 -33.223,0 -49.8342,0 -3.3349,0 -6.0547,2.7198 -6.0547,6.0548 0,33.6886 0,67.376 0,101.0646 0,1.0002 -0.8162,1.8164 -1.8165,1.8164 -2.9274,0 -5.8549,0 -8.7824,0 -1.0002,0 -1.8164,-0.8162 -1.8164,-1.8164 0,-2.1821 0,-4.3643 0,-6.5464 0,-3.335 -2.7198,-6.0547 -6.0547,-6.0547 -3.0995,0 -6.1989,0 -9.2983,0 0,-17.0726 0,-34.1446 0,-51.2165 0,-3.335 -2.7198,-6.0548 -6.0548,-6.0548 -10.0254,0 -20.0509,0 -30.0763,0 -3.335,0 -6.0548,2.7198 -6.0548,6.0548 0,17.0719 0,34.1439 0,51.2165 -3.5002,0 -6.9998,0 -10.4995,0 -3.3349,0 -6.0547,2.7197 -6.0547,6.0547 0,7.0816 0,14.1633 0,21.2455 0,1.0002 -0.8162,1.8164 -1.8165,1.8164 -5.2518,0 -10.5031,0 -15.755,0 -0.9918,3.7879 -1.9406,7.5957 -2.8463,11.4223 6.2533,0 12.5054,0 18.7582,0 1.0002,0 1.8164,0.8162 1.8164,1.8164 0,23.0359 0,46.0718 0,69.1077 3.9549,1.6511 7.9093,3.3028 11.8643,4.954 0,-34.2481 0,-68.4955 0,-102.7436 0,-1.0003 0.8161,-1.8164 1.8164,-1.8164 15.3833,0 30.7672,0 46.1505,0 1.0002,0 1.8164,0.8161 1.8164,1.8164 0,39.2759 0,78.5512 0,117.8272 4.0046,-1.0729 8.0098,-2.1464 12.0144,-3.2193 0,-33.7698 0,-67.5401 0,-101.3099 0,-1.0002 0.8162,-1.8164 1.8164,-1.8164 34.7052,0 69.4098,0 104.115,0 1.0003,0 1.8165,0.8162 1.8165,1.8164 0,29.9583 0,59.9172 0,89.8755 3.892,2.2469 7.7833,4.4938 11.6753,6.7407 0,-34.9776 0,-69.9541 0,-104.9318 0,-2.3341 -1.9042,-4.2383 -4.2383,-4.2383 -6.0214,0 -12.0429,0 -18.0649,0 -1.0003,0 -1.8165,-0.8162 -1.8165,-1.8164 0,-2.902 0,-5.8041 0,-8.7061 0,-1.0003 0.8162,-1.8165 1.8165,-1.8165 13.0431,0 26.0868,0 39.13,0 1.0002,0 1.8164,0.8162 1.8164,1.8165 0,42.2009 0,84.4013 0,126.6023 3.955,0.4783 7.9093,0.956 11.8643,1.4344 z M 519.8151,455.4301 c 0.9724,0 1.7674,0.795 1.7674,1.7674 l 0,6.9448 c 0,0.9723 -0.795,1.7673 -1.7674,1.7673 l -39.1845,0 c -0.9723,0 -1.7673,-0.795 -1.7673,-1.7673 l 0,-6.9448 c 0,-0.9724 0.795,-1.7674 1.7673,-1.7674 l 39.1845,0 z m -39.1845,17.3547 39.1845,0 c 0.9724,0 1.7674,0.795 1.7674,1.7674 l 0,6.9448 c 0,0.9724 -0.795,1.7674 -1.7674,1.7674 l -39.1845,0 c -0.9723,0 -1.7673,-0.795 -1.7673,-1.7674 l 0,-6.9448 c 0,-0.9724 0.795,-1.7674 1.7673,-1.7674 z m 0,17.3547 39.1845,0 c 0.9724,0 1.7674,0.795 1.7674,1.7674 l 0,6.9448 c 0,0.9724 -0.795,1.7674 -1.7674,1.7674 l -39.1845,0 c -0.9723,0 -1.7673,-0.795 -1.7673,-1.7674 l 0,-6.9448 c 0,-0.9724 0.795,-1.7674 1.7673,-1.7674 z m -34.8935,6.0003 0,92.3445 c 0,1.1117 -0.91,2.0211 -2.0216,2.0211 l -33.2376,0 c -1.1122,0 -2.0216,-0.9094 -2.0216,-2.0211 l 0,-92.3445 c 0,-1.1123 0.9094,-2.0211 2.0216,-2.0211 l 33.2376,0 c 1.1116,0 2.0216,0.9088 2.0216,2.0211 z m -105.1885,34.291 13.4301,0 c 1.5203,0 2.7634,1.2431 2.7634,2.7634 l 0,39.8633 c 0,1.5203 -1.2431,2.7633 -2.7634,2.7633 l -13.4301,0 c -1.5203,0 -2.7633,-1.243 -2.7633,-2.7633 l 0,-39.8633 c 0,-1.5203 1.243,-2.7634 2.7633,-2.7634 z m 140.082,-22.5357 39.1845,0 c 0.9724,0 1.7674,0.795 1.7674,1.7673 l 0,6.9448 c 0,0.9724 -0.795,1.7674 -1.7674,1.7674 l -39.1845,0 c -0.9723,0 -1.7673,-0.795 -1.7673,-1.7674 l 0,-6.9448 c 0,-0.9723 0.795,-1.7673 1.7673,-1.7673 z m 0,17.4885 39.1845,0 c 0.9724,0 1.7674,0.795 1.7674,1.7674 l 0,6.9448 c 0,0.9724 -0.795,1.7673 -1.7674,1.7673 l -39.1845,0 c -0.9723,0 -1.7673,-0.7949 -1.7673,-1.7673 l 0,-6.9448 c 0,-0.9724 0.795,-1.7674 1.7673,-1.7674 z m 0,17.4879 39.1845,0 c 0.9724,0 1.7674,0.795 1.7674,1.7674 l 0,6.9448 c 0,0.9724 -0.795,1.7674 -1.7674,1.7674 l -39.1845,0 c -0.9723,0 -1.7673,-0.795 -1.7673,-1.7674 l 0,-6.9448 c 0,-0.9724 0.795,-1.7674 1.7673,-1.7674 z m 0,17.2209 39.1845,0 c 0.9724,0 1.7674,0.795 1.7674,1.7674 l 0,6.9448 c 0,0.9724 -0.795,1.7674 -1.7674,1.7674 l -39.1845,0 c -0.9723,0 -1.7673,-0.795 -1.7673,-1.7674 l 0,-6.9448 c 0,-0.9724 0.795,-1.7674 1.7673,-1.7674 z m 40.9519,-123.0488 0,8.5384 c 0,1.1952 -0.9772,2.1725 -2.1724,2.1725 l -38.3744,0 c -1.1952,0 -2.1724,-0.9773 -2.1724,-2.1725 l 0,-8.5384 c 0,-1.1952 0.9772,-2.1724 2.1724,-2.1724 l 38.3744,0 c 1.1952,0 2.1724,0.9772 2.1724,2.1724 z" />
    <path
       id="path16"
       style="fill:#d41c1e;fill-rule:evenodd"
       d="m 457.8715,608.5994 c 0,-0.6478 -0.5292,-1.177 -1.1771,-1.177 l -39.3764,0 c -0.6479,0 -1.1771,0.5292 -1.1771,1.177 l 0,5.7205 c 0,0.6479 0.5292,1.1771 1.1771,1.1771 l 39.3764,0 c 0.6479,0 1.1771,-0.5292 1.1771,-1.1771 l 0,-5.7205 z" />
    <path
       id="path18"
       style="fill:#d41c1e;fill-rule:evenodd"
       d="m 408.4756,614.3199 0,-5.7205 c 0,-0.6478 -0.5292,-1.177 -1.177,-1.177 l -13.8769,0 c -0.6478,0 -1.177,0.5292 -1.177,1.177 l 0,5.7205 c 0,0.6479 0.5292,1.1771 1.177,1.1771 l 13.8769,0 c 0.6478,0 1.177,-0.5292 1.177,-1.1771 z" />
    <path
       id="path20"
       style="fill:#d41c1e;fill-rule:evenodd"
       d="m 407.2986,623.1756 -13.8769,0 c -0.6478,0 -1.177,0.5292 -1.177,1.1771 l 0,5.7205 c 0,0.6478 0.5292,1.177 1.177,1.177 l 13.8769,0 c 0.6478,0 1.177,-0.5292 1.177,-1.177 l 0,-5.7205 c 0,-0.6479 -0.5292,-1.1771 -1.177,-1.1771 z" />
    <path
       id="path22"
       style="fill:#d41c1e;fill-rule:evenodd"
       d="m 417.318,623.1756 c -0.6479,0 -1.1771,0.5292 -1.1771,1.1771 l 0,5.7205 c 0,0.6478 0.5292,1.177 1.1771,1.177 l 39.3764,0 c 0.6479,0 1.1771,-0.5292 1.1771,-1.177 l 0,-5.7205 c 0,-0.6479 -0.5292,-1.1771 -1.1771,-1.1771 l -39.3764,0 z" />
    <path
       id="path24"
       style="fill:#d41c1e;fill-rule:evenodd"
       d="m 465.5362,608.5994 0,5.7205 c 0,0.6479 0.5292,1.1771 1.177,1.1771 l 13.8769,0 c 0.6478,0 1.177,-0.5292 1.177,-1.1771 l 0,-5.7205 c 0,-0.6478 -0.5292,-1.177 -1.177,-1.177 l -13.8769,0 c -0.6478,0 -1.177,0.5292 -1.177,1.177 z" />
    <path
       id="path26"
       style="fill:#d41c1e;fill-rule:evenodd"
       d="m 480.5901,623.1756 -13.8769,0 c -0.6478,0 -1.177,0.5292 -1.177,1.1771 l 0,5.7205 c 0,0.6478 0.5292,1.177 1.177,1.177 l 13.8769,0 c 0.6478,0 1.177,-0.5292 1.177,-1.177 l 0,-5.7205 c 0,-0.6479 -0.5292,-1.1771 -1.177,-1.1771 z" />
    <path
       id="path28"
       style="fill:#d41c1e;fill-rule:evenodd"
       d="m 456.6944,638.9289 -39.3764,0 c -0.6479,0 -1.1771,0.5291 -1.1771,1.177 l 0,5.7205 c 0,0.6479 0.5292,1.1771 1.1771,1.1771 l 39.3764,0 c 0.6479,0 1.1771,-0.5292 1.1771,-1.1771 l 0,-5.7205 c 0,-0.6479 -0.5292,-1.177 -1.1771,-1.177 z" />
    <path
       id="path30"
       style="fill:#d41c1e;fill-rule:evenodd"
       d="m 408.4756,645.8264 0,-5.7205 c 0,-0.6479 -0.5292,-1.177 -1.177,-1.177 l -13.8769,0 c -0.6478,0 -1.177,0.5291 -1.177,1.177 l 0,5.7205 c 0,0.6479 0.5292,1.1771 1.177,1.1771 l 13.8769,0 c 0.6478,0 1.177,-0.5292 1.177,-1.1771 z" />
    <path
       id="path32"
       style="fill:#d41c1e;fill-rule:evenodd"
       d="m 407.2986,654.6821 -13.8769,0 c -0.6478,0 -1.177,0.5292 -1.177,1.177 l 0,5.7206 c 0,0.6478 0.5292,1.177 1.177,1.177 l 13.8769,0 c 0.6478,0 1.177,-0.5292 1.177,-1.177 l 0,-5.7206 c 0,-0.6478 -0.5292,-1.177 -1.177,-1.177 z" />
    <path
       id="path34"
       style="fill:#d41c1e;fill-rule:evenodd"
       d="m 416.1409,655.8591 0,5.7206 c 0,0.6478 0.5292,1.177 1.1771,1.177 l 39.3764,0 c 0.6479,0 1.1771,-0.5292 1.1771,-1.177 l 0,-5.7206 c 0,-0.6478 -0.5292,-1.177 -1.1771,-1.177 l -39.3764,0 c -0.6479,0 -1.1771,0.5292 -1.1771,1.177 z" />
    <path
       id="path36"
       style="fill:#d41c1e;fill-rule:evenodd"
       d="m 465.5362,645.8264 c 0,0.6479 0.5292,1.1771 1.177,1.1771 l 13.8769,0 c 0.6478,0 1.177,-0.5292 1.177,-1.1771 l 0,-5.7205 c 0,-0.6479 -0.5292,-1.177 -1.177,-1.177 l -13.8769,0 c -0.6478,0 -1.177,0.5291 -1.177,1.177 l 0,5.7205 z" />
    <path
       id="path38"
       style="fill:#d41c1e;fill-rule:evenodd"
       d="m 480.5901,654.6821 -13.8769,0 c -0.6478,0 -1.177,0.5292 -1.177,1.177 l 0,5.7206 c 0,0.6478 0.5292,1.177 1.177,1.177 l 13.8769,0 c 0.6478,0 1.177,-0.5292 1.177,-1.177 l 0,-5.7206 c 0,-0.6478 -0.5292,-1.177 -1.177,-1.177 z" />
    <path
       id="path40"
       style="fill:#d41c1e;fill-rule:evenodd"
       d="m 480.5901,670.4353 -13.8769,0 c -0.6478,0 -1.177,0.5292 -1.177,1.1771 l 0,5.7205 c 0,0.6479 0.5292,1.177 1.177,1.177 l 13.8769,0 c 0.6478,0 1.177,-0.5291 1.177,-1.177 l 0,-5.7205 c 0,-0.6479 -0.5292,-1.1771 -1.177,-1.1771 z" />
    <path
       id="path42"
       style="fill:#d41c1e;fill-rule:evenodd"
       d="m 457.8715,677.3329 0,-5.7205 c 0,-0.6479 -0.5292,-1.1771 -1.1771,-1.1771 l -39.3764,0 c -0.6479,0 -1.1771,0.5292 -1.1771,1.1771 l 0,5.7205 c 0,0.6479 0.5292,1.177 1.1771,1.177 l 39.3764,0 c 0.6479,0 1.1771,-0.5291 1.1771,-1.177 z" />
    <path
       id="path44"
       style="fill:#d41c1e;fill-rule:evenodd"
       d="m 408.4756,677.3329 0,-5.7205 c 0,-0.6479 -0.5292,-1.1771 -1.177,-1.1771 l -13.8769,0 c -0.6478,0 -1.177,0.5292 -1.177,1.1771 l 0,5.7205 c 0,0.6479 0.5292,1.177 1.177,1.177 l 13.8769,0 c 0.6478,0 1.177,-0.5291 1.177,-1.177 z" />
    <path
       id="path46"
       style="fill:#d41c1e;fill-rule:evenodd"
       d="m 356.6755,678.9967 0,-8.5771 c 0,-0.4717 -0.3851,-0.8568 -0.8568,-0.8568 l -4.165,0 c -0.4717,0 -0.8568,0.3851 -0.8568,0.8568 l 0,8.5771 c 0,0.4717 0.3851,0.8568 0.8568,0.8568 l 4.165,0 c 0.4717,0 0.8568,-0.3851 0.8568,-0.8568 z" />
    <path
       id="path48"
       style="fill:#d41c1e;fill-rule:evenodd"
       d="m 341.7239,678.9967 0,-8.5771 c 0,-0.4717 -0.3851,-0.8568 -0.8568,-0.8568 l -4.165,0 c -0.4717,0 -0.8568,0.3851 -0.8568,0.8568 l 0,8.5771 c 0,0.4717 0.3851,0.8568 0.8568,0.8568 l 4.165,0 c 0.4717,0 0.8568,-0.3851 0.8568,-0.8568 z" />
    <path
       id="path50"
       style="fill:#d41c1e;fill-rule:evenodd"
       d="m 303.9701,662.7555 c 0.6479,0 1.1771,-0.5292 1.1771,-1.1771 l 0,-5.7205 c 0,-0.6478 -0.5292,-1.177 -1.1771,-1.177 l -13.8769,0 c -0.6478,0 -1.177,0.5292 -1.177,1.177 l 0,5.7205 c 0,0.6479 0.5292,1.1771 1.177,1.1771 l 13.8769,0 z" />
    <path
       id="path52"
       style="fill:#d41c1e;fill-rule:evenodd"
       d="m 290.0932,647.2699 13.8769,0 c 0.6479,0 1.1771,-0.5292 1.1771,-1.1771 l 0,-5.7205 c 0,-0.6479 -0.5292,-1.177 -1.1771,-1.177 l -13.8769,0 c -0.6478,0 -1.177,0.5291 -1.177,1.177 l 0,5.7205 c 0,0.6479 0.5292,1.1771 1.177,1.1771 z" />
    <path
       id="path54"
       style="fill:#d41c1e;fill-rule:evenodd"
       d="m 303.9701,670.1665 -13.8769,0 c -0.6478,0 -1.177,0.5292 -1.177,1.177 l 0,5.7206 c 0,0.6478 0.5292,1.177 1.177,1.177 l 13.8769,0 c 0.6479,0 1.1771,-0.5292 1.1771,-1.177 l 0,-5.7206 c 0,-0.6478 -0.5292,-1.177 -1.1771,-1.177 z" />
    <path
       id="path56"
       style="fill:#d41c1e;fill-rule:evenodd"
       d="m 336.7021,688.5862 c -0.4717,0 -0.8568,0.3851 -0.8568,0.8568 l 0,8.5771 c 0,0.4717 0.3851,0.8568 0.8568,0.8568 l 4.165,0 c 0.4717,0 0.8568,-0.3851 0.8568,-0.8568 l 0,-8.5771 c 0,-0.4717 -0.3851,-0.8568 -0.8568,-0.8568 l -4.165,0 z" />
    <path
       id="path58"
       style="fill:#d41c1e;fill-rule:evenodd"
       d="m 350.7969,689.443 0,8.5771 c 0,0.4717 0.3851,0.8568 0.8568,0.8568 l 4.165,0 c 0.4717,0 0.8568,-0.3851 0.8568,-0.8568 l 0,-8.5771 c 0,-0.4717 -0.3851,-0.8568 -0.8568,-0.8568 l -4.165,0 c -0.4717,0 -0.8568,0.3851 -0.8568,0.8568 z" />
    <path
       id="path60"
       style="fill:#d41c1e;fill-rule:evenodd"
       d="m 351.6537,661.0977 4.165,0 c 0.4717,0 0.8568,-0.3851 0.8568,-0.8567 l 0,-8.5772 c 0,-0.4717 -0.3851,-0.8567 -0.8568,-0.8567 l -4.165,0 c -0.4717,0 -0.8568,0.385 -0.8568,0.8567 l 0,8.5772 c 0,0.4716 0.3851,0.8567 0.8568,0.8567 z" />
    <path
       id="path62"
       style="fill:#d41c1e;fill-rule:evenodd"
       d="m 351.6537,642.3407 4.165,0 c 0.4717,0 0.8568,-0.3851 0.8568,-0.8567 l 0,-8.5772 c 0,-0.4717 -0.3851,-0.8567 -0.8568,-0.8567 l -4.165,0 c -0.4717,0 -0.8568,0.385 -0.8568,0.8567 l 0,8.5772 c 0,0.4716 0.3851,0.8567 0.8568,0.8567 z" />
    <path
       id="path64"
       style="fill:#d41c1e;fill-rule:evenodd"
       d="m 351.6537,623.9179 4.165,0 c 0.4717,0 0.8568,-0.3851 0.8568,-0.8567 l 0,-8.5772 c 0,-0.4716 -0.3851,-0.8567 -0.8568,-0.8567 l -4.165,0 c -0.4717,0 -0.8568,0.3851 -0.8568,0.8567 l 0,8.5772 c 0,0.4716 0.3851,0.8567 0.8568,0.8567 z" />
    <path
       id="path66"
       style="fill:#d41c1e;fill-rule:evenodd"
       d="m 351.6537,605.4951 4.165,0 c 0.4717,0 0.8568,-0.385 0.8568,-0.8567 l 0,-8.5772 c 0,-0.4716 -0.3851,-0.8567 -0.8568,-0.8567 l -4.165,0 c -0.4717,0 -0.8568,0.3851 -0.8568,0.8567 l 0,8.5772 c 0,0.4717 0.3851,0.8567 0.8568,0.8567 z" />
    <path
       id="path68"
       style="fill:#d41c1e;fill-rule:evenodd"
       d="m 341.7239,604.6384 0,-8.5772 c 0,-0.4716 -0.3851,-0.8567 -0.8568,-0.8567 l -4.165,0 c -0.4717,0 -0.8568,0.3851 -0.8568,0.8567 l 0,8.5772 c 0,0.4717 0.3851,0.8567 0.8568,0.8567 l 4.165,0 c 0.4717,0 0.8568,-0.385 0.8568,-0.8567 z" />
    <path
       id="path70"
       style="fill:#d41c1e;fill-rule:evenodd"
       d="m 341.7239,614.484 c 0,-0.4716 -0.3851,-0.8567 -0.8568,-0.8567 l -4.165,0 c -0.4717,0 -0.8568,0.3851 -0.8568,0.8567 l 0,8.5772 c 0,0.4716 0.3851,0.8567 0.8568,0.8567 l 4.165,0 c 0.4717,0 0.8568,-0.3851 0.8568,-0.8567 l 0,-8.5772 z" />
    <path
       id="path72"
       style="fill:#d41c1e;fill-rule:evenodd"
       d="m 341.7239,632.9068 c 0,-0.4717 -0.3851,-0.8567 -0.8568,-0.8567 l -4.165,0 c -0.4717,0 -0.8568,0.385 -0.8568,0.8567 l 0,8.5772 c 0,0.4716 0.3851,0.8567 0.8568,0.8567 l 4.165,0 c 0.4717,0 0.8568,-0.3851 0.8568,-0.8567 l 0,-8.5772 z" />
    <path
       id="path74"
       style="fill:#d41c1e;fill-rule:evenodd"
       d="m 341.7239,651.6638 c 0,-0.4717 -0.3851,-0.8567 -0.8568,-0.8567 l -4.165,0 c -0.4717,0 -0.8568,0.385 -0.8568,0.8567 l 0,8.5772 c 0,0.4716 0.3851,0.8567 0.8568,0.8567 l 4.165,0 c 0.4717,0 0.8568,-0.3851 0.8568,-0.8567 l 0,-8.5772 z" />
    <path
       id="path76"
       style="fill:#d41c1e;fill-rule:evenodd"
       d="m 637.3045,588.7314 c -0.5074,9.0512 -0.4541,19.8383 -0.1338,32.0671 0.3203,12.2282 0.9082,25.8986 1.5221,37.273 0.614,11.3739 1.2552,20.4518 1.8958,29.5296 4.4853,1.7087 8.9713,3.4179 14.231,5.901 5.2598,2.483 11.294,5.7405 16.2334,7.9832 4.9395,2.2427 8.7842,3.4712 12.2548,4.3788 3.4712,0.9076 6.5688,1.4949 10.4935,1.682 3.9247,0.1865 8.6777,-0.0267 12.629,-0.6939 3.9513,-0.6678 7.1022,-1.7892 11.748,-3.898 4.6458,-2.1095 10.7866,-5.2071 16.073,-7.7967 5.287,-2.5903 9.719,-4.6725 14.1777,-6.3545 4.4588,-1.6826 8.9447,-2.9638 13.2696,-3.6577 4.3255,-0.6944 8.4912,-0.8016 12.6563,-0.9082 0.6406,-12.2287 1.2818,-24.4569 1.8424,-37.6732 0.5607,-13.2169 1.0408,-27.4207 1.1474,-39.5956 0.1072,-12.1755 -0.1599,-22.3215 -0.9875,-30.1175 -0.8277,-7.7967 -2.2161,-13.2436 -4.3522,-18.7437 -2.1361,-5.5002 -5.0194,-11.0542 -8.4106,-15.9936 -3.3907,-4.9395 -7.2887,-9.2644 -11.9878,-13.1092 -4.6991,-3.8447 -10.1992,-7.2094 -16.0203,-9.799 -5.8204,-2.5902 -11.9611,-4.4054 -17.942,-5.3663 -5.9809,-0.9615 -11.8013,-1.0687 -18.1824,-0.1871 -6.3811,0.881 -13.3235,2.7501 -19.9716,5.8477 -6.6481,3.097 -13.0032,7.4219 -18.4234,12.3347 -5.4196,4.9128 -9.9055,10.413 -13.2696,16.0469 -3.364,5.6333 -5.6066,11.4005 -7.262,17.942 -1.6554,6.5416 -2.7234,13.8569 -3.2308,22.9082 z m 69.8469,18.2895 c 4.7142,0 8.5705,3.8557 8.5705,8.5705 l 0,31.5598 c 0,4.7148 -3.8563,8.5705 -8.5711,8.5705 -4.7142,0 -8.5705,-3.8557 -8.5705,-8.5705 l 0,-31.5598 c 0,-4.7148 3.8563,-8.5705 8.5711,-8.5705 z" />
    <path
       id="path78"
       style="fill:#d41c1e;fill-rule:evenodd"
       d="m 1029.4474,762.2985 c -4.7173,0.3113 -8.8999,0.0884 -13.4391,-0.6678 -4.5387,-0.7562 -9.4339,-2.0471 -14.5962,-4.116 -5.1617,-2.0695 -10.5904,-4.9177 -15.9973,-7.4764 -5.4069,-2.5587 -10.7907,-4.8281 -16.2642,-6.6972 -5.4735,-1.8691 -11.036,-3.3373 -16.3097,-4.116 -5.2731,-0.7792 -10.2567,-0.8676 -15.686,-0.356 -5.4287,0.5116 -11.303,1.6245 -18.935,4.2946 -7.6314,2.6696 -17.0205,6.897 -23.7183,10.0564 -6.6971,3.1593 -10.7018,5.2512 -15.0182,6.8975 -4.3164,1.6463 -8.9447,2.8482 -14.0179,3.16 -5.0727,0.3112 -10.5904,-0.2676 -16.3091,-1.5355 -5.7181,-1.2685 -11.6366,-3.2266 -18.223,-6.0965 -6.5857,-2.8706 -13.8387,-6.653 -19.446,-9.2783 -5.6067,-2.6253 -9.5671,-4.0942 -14.4848,-5.2731 -4.917,-1.1794 -10.7907,-2.0695 -17.3323,-2.1137 -6.5415,-0.0448 -13.7509,0.7562 -20.7375,2.6029 -6.9859,1.8467 -13.7503,4.7391 -19.7578,7.7204 -6.0069,2.9814 -11.2582,6.0524 -16.0197,8.2551 -4.7614,2.2027 -9.0331,3.5378 -14.4399,4.3164 -5.4069,0.7787 -11.9479,1.0015 -17.6884,0.5564 -5.7405,-0.445 -10.6805,-1.5578 -15.1974,-3.0261 -4.5162,-1.4683 -8.6104,-3.2932 -12.8603,-5.5849 -4.2492,-2.2917 -8.6552,-5.0503 -13.9731,-7.431 -5.3173,-2.3807 -11.5476,-4.3836 -18.1334,-5.7853 -6.5857,-1.4017 -13.5281,-2.2027 -20.4257,-1.7801 -6.8969,0.4226 -13.7503,2.0695 -21.6269,5.0733 -7.876,3.0037 -16.7759,7.3644 -24.5187,10.9469 -7.7428,3.582 -14.3292,6.3854 -19.9807,7.9209 -5.6515,1.5348 -10.3681,1.8019 -15.9754,1.0898 -5.6067,-0.712 -12.1041,-2.4025 -18.6898,-4.7166 -6.5857,-2.3142 -13.2611,-5.2507 -20.1139,-8.5881 -6.8527,-3.338 -13.8841,-7.0756 -21.7601,-9.2559 -7.8766,-2.1809 -16.5985,-2.8039 -24.6525,-2.0471 -8.0547,0.7563 -15.442,2.8918 -23.2739,6.0517 -7.8318,3.1594 -16.1086,7.342 -23.8956,10.7242 -7.7876,3.3822 -15.086,5.9627 -22.25,6.9418 -7.1646,0.979 -14.196,0.356 -20.2919,-0.9791 -6.0965,-1.3351 -11.2588,-3.3816 -17.5327,-6.4519 -6.2745,-3.071 -13.6619,-7.1646 -21.3599,-10.1908 -7.6987,-3.0261 -15.7091,-4.9836 -22.0109,-5.9136 -6.3017,-0.9306 -10.8949,-0.8326 -17.5696,0.2797 -6.6754,1.1123 -15.4318,3.2399 -25.1042,6.7074 -8.9011,3.1903 -18.5784,7.5164 -28.3175,11.9321 0.7605,7.3741 1.6827,14.7004 2.761,21.9733 8.8012,-3.9743 17.4976,-7.7937 25.5565,-10.6824 9.673,-3.4669 18.4288,-5.5952 25.1042,-6.7074 6.6747,-1.1123 11.2679,-1.2104 17.5696,-0.2798 6.3018,0.9301 14.3122,2.8876 22.0109,5.9137 7.698,3.0262 15.0854,7.1198 21.3599,10.1908 6.2739,3.0703 11.4362,5.1168 17.5327,6.4519 6.0959,1.3351 13.1273,1.9581 20.2919,0.979 7.164,-0.979 14.4624,-3.5595 22.25,-6.9417 7.787,-3.3822 16.0638,-7.5648 23.8956,-10.7242 7.8319,-3.16 15.2192,-5.2955 23.2739,-6.0517 8.054,-0.7568 16.7759,-0.1338 24.6525,2.0471 7.876,2.1803 14.9074,5.9179 21.7601,9.2559 6.8528,3.3374 13.5282,6.2739 20.1139,8.588 6.5857,2.3142 13.0831,4.0047 18.6898,4.7167 5.6073,0.712 10.3239,0.445 15.9754,-1.0899 5.6515,-1.5354 12.2379,-4.3388 19.9807,-7.9208 7.7428,-3.5826 16.6427,-7.9432 24.5187,-10.947 7.8766,-3.0037 14.73,-4.6506 21.6269,-5.0732 6.8976,-0.4227 13.84,0.3784 20.4257,1.7801 6.5858,1.4016 12.8161,3.4046 18.1334,5.7853 5.3179,2.3807 9.7239,5.1392 13.9731,7.431 4.2499,2.2917 8.3441,4.1166 12.8603,5.5849 4.5169,1.4682 9.4569,2.5811 15.1974,3.0261 5.7405,0.4451 12.2815,0.2222 17.6884,-0.5564 5.4068,-0.7786 9.6785,-2.1137 14.4399,-4.3164 4.7615,-2.2027 10.0128,-5.2737 16.0197,-8.2551 6.0075,-2.9813 12.7719,-5.8737 19.7578,-7.7204 6.9866,-1.8467 14.196,-2.6477 20.7375,-2.6029 6.5416,0.0442 12.4153,0.9342 17.3323,2.1137 4.9177,1.1789 8.8781,2.6477 14.4848,5.2731 5.6073,2.6253 12.8603,6.4077 19.446,9.2783 6.5864,2.8699 12.5049,4.828 18.223,6.0965 5.7187,1.2679 11.2364,1.8467 16.3091,1.5355 5.0732,-0.3118 9.7015,-1.5137 14.0179,-3.16 4.3164,-1.6463 8.3211,-3.7382 15.0182,-6.8976 6.6978,-3.1593 16.0869,-7.3868 23.7183,-10.0563 7.632,-2.6701 13.5063,-3.783 18.935,-4.2946 5.4293,-0.5116 10.4129,-0.4233 15.686,0.356 5.2737,0.7786 10.8362,2.2469 16.3097,4.116 5.4735,1.8691 10.8573,4.1384 16.2642,6.6972 5.4069,2.5587 10.8356,5.4069 15.9973,7.4764 5.1623,2.0689 10.0575,3.3597 14.5962,4.116 4.5392,0.7562 8.7218,0.979 13.4391,0.6678 4.7172,-0.3118 9.9679,-1.1576 14.7294,-2.5811 4.7614,-1.4241 9.0336,-3.427 15.5304,-6.564 6.4967,-3.1375 15.2192,-7.4092 22.0719,-9.9903 6.8528,-2.5811 11.8371,-3.4712 16.9097,-4.0494 5.0733,-0.5788 10.235,-0.8453 15.0412,-0.5558 4.8063,0.2888 9.2559,1.1346 14.1954,2.6253 4.9395,1.4907 10.3687,3.6262 16.4205,6.3629 6.0517,2.7368 12.727,6.0748 17.9777,8.4113 5.2513,2.3359 9.0779,3.6704 13.0607,4.5386 3.9828,0.8677 8.1212,1.2679 11.946,1.3109 1.6802,0.0187 3.3011,-0.0315 4.8862,-0.1205 1.2243,-7.7561 2.2699,-15.5728 3.1315,-23.4434 -2.5866,0.2113 -5.218,0.3724 -8.0177,0.3409 -3.8248,-0.043 -7.9632,-0.4432 -11.946,-1.3109 -3.9828,-0.8682 -7.8094,-2.2027 -13.0607,-4.5386 -5.2507,-2.3365 -11.926,-5.6745 -17.9777,-8.4112 -6.0518,-2.7368 -11.481,-4.8723 -16.4205,-6.363 -4.9395,-1.4907 -9.3891,-2.3365 -14.1954,-2.6253 -4.8062,-0.2894 -9.9679,-0.023 -15.0412,0.5558 -5.0726,0.5782 -10.0569,1.4683 -16.9097,4.0494 -6.8527,2.5812 -15.5752,6.8528 -22.0719,9.9904 -6.4968,3.1369 -10.769,5.1398 -15.5304,6.5639 -4.7615,1.4235 -10.0122,2.2693 -14.7294,2.5811 z" />
    <path
       id="path80"
       style="fill:#d41c1e;fill-rule:evenodd"
       d="m 1029.4474,804.5449 c -4.7173,0.3112 -8.8999,0.0884 -13.4391,-0.6678 -4.5387,-0.7562 -9.4339,-2.0471 -14.5962,-4.116 -5.1617,-2.0695 -10.5904,-4.9177 -15.9973,-7.4764 -5.4069,-2.5588 -10.7907,-4.8281 -16.2642,-6.6972 -5.4735,-1.8691 -11.036,-3.3374 -16.3097,-4.116 -5.2731,-0.7792 -10.2567,-0.8676 -15.686,-0.356 -5.4287,0.5116 -11.303,1.6245 -18.935,4.2946 -7.6314,2.6696 -17.0205,6.897 -23.7183,10.0563 -6.6971,3.1594 -10.7018,5.2513 -15.0182,6.8976 -4.3164,1.6463 -8.9447,2.8482 -14.0179,3.16 -5.0727,0.3112 -10.5904,-0.2676 -16.3091,-1.5355 -5.7181,-1.2685 -11.6366,-3.2266 -18.223,-6.0965 -6.5857,-2.8706 -13.8387,-6.653 -19.446,-9.2783 -5.6067,-2.6254 -9.5671,-4.0942 -14.4848,-5.2731 -4.917,-1.1795 -10.7907,-2.0695 -17.3323,-2.1137 -6.5415,-0.0448 -13.7509,0.7562 -20.7375,2.6029 -6.9859,1.8467 -13.7503,4.7391 -19.7578,7.7204 -6.0069,2.9814 -11.2582,6.0524 -16.0197,8.2551 -4.7614,2.2027 -9.0331,3.5378 -14.4399,4.3164 -5.4069,0.7786 -11.9479,1.0015 -17.6884,0.5564 -5.7405,-0.445 -10.6805,-1.5579 -15.1974,-3.0261 -4.5162,-1.4683 -8.6104,-3.2932 -12.8603,-5.5849 -4.2492,-2.2917 -8.6552,-5.0503 -13.9731,-7.431 -5.3173,-2.3807 -11.5476,-4.3837 -18.1334,-5.7853 -6.5857,-1.4017 -13.5281,-2.2027 -20.4257,-1.7801 -6.8969,0.4226 -13.7503,2.0695 -21.6269,5.0732 -7.876,3.0038 -16.7759,7.3644 -24.5187,10.947 -7.7428,3.582 -14.3292,6.3854 -19.9807,7.9208 -5.6515,1.5349 -10.3681,1.8019 -15.9754,1.0899 -5.6067,-0.712 -12.1041,-2.4025 -18.6898,-4.7166 -6.5857,-2.3142 -13.2611,-5.2507 -20.1139,-8.5881 -6.8527,-3.338 -13.8841,-7.0756 -21.7601,-9.2559 -7.8766,-2.1809 -16.5985,-2.8039 -24.6525,-2.0471 -8.0547,0.7562 -15.442,2.8918 -23.2739,6.0517 -7.8318,3.1594 -16.1086,7.342 -23.8956,10.7242 -7.7876,3.3822 -15.086,5.9627 -22.25,6.9418 -7.1646,0.979 -14.196,0.356 -20.2919,-0.9791 -6.0965,-1.3351 -11.2588,-3.3816 -17.5327,-6.4519 -6.2745,-3.071 -13.6619,-7.1646 -21.3599,-10.1908 -7.6987,-3.0261 -15.7091,-4.9836 -22.0109,-5.9136 -6.3017,-0.9307 -10.8949,-0.8326 -17.5696,0.2797 -6.6754,1.1122 -15.4312,3.2405 -25.1042,6.7074 -7.1561,2.5654 -14.816,5.8641 -22.6042,9.354 1.3242,7.1404 2.8009,14.2274 4.4266,21.2564 6.2558,-2.7513 12.382,-5.31 18.1776,-7.3874 9.673,-3.4669 18.4288,-5.5952 25.1042,-6.7074 6.6747,-1.1123 11.2679,-1.2104 17.5696,-0.2798 6.3018,0.93 14.3122,2.8875 22.0109,5.9137 7.698,3.0262 15.0854,7.1198 21.3599,10.1907 6.2739,3.0704 11.4362,5.1169 17.5327,6.452 6.0959,1.3351 13.1273,1.9581 20.2919,0.979 7.164,-0.979 14.4624,-3.5595 22.25,-6.9417 7.787,-3.3822 16.0638,-7.5648 23.8956,-10.7242 7.8319,-3.16 15.2192,-5.2955 23.2739,-6.0517 8.054,-0.7569 16.7759,-0.1338 24.6525,2.0471 7.876,2.1803 14.9074,5.9179 21.7601,9.2559 6.8528,3.3374 13.5282,6.2739 20.1139,8.588 6.5857,2.3142 13.0831,4.0046 18.6898,4.7167 5.6073,0.712 10.3239,0.445 15.9754,-1.0899 5.6515,-1.5355 12.2379,-4.3388 19.9807,-7.9208 7.7428,-3.5826 16.6427,-7.9432 24.5187,-10.947 7.8766,-3.0037 14.73,-4.6506 21.6269,-5.0732 6.8976,-0.4227 13.84,0.3784 20.4257,1.7801 6.5858,1.4016 12.8161,3.4045 18.1334,5.7853 5.3179,2.3807 9.7239,5.1392 13.9731,7.431 4.2499,2.2917 8.3441,4.1166 12.8603,5.5849 4.5169,1.4682 9.4569,2.5811 15.1974,3.0261 5.7405,0.445 12.2815,0.2222 17.6884,-0.5564 5.4068,-0.7787 9.6785,-2.1137 14.4399,-4.3164 4.7615,-2.2028 10.0128,-5.2737 16.0197,-8.2551 6.0075,-2.9813 12.7719,-5.8737 19.7578,-7.7204 6.9866,-1.8467 14.196,-2.6477 20.7375,-2.6029 6.5416,0.0442 12.4153,0.9342 17.3323,2.1137 4.9177,1.1788 8.8781,2.6477 14.4848,5.2731 5.6073,2.6253 12.8603,6.4077 19.446,9.2783 6.5864,2.8699 12.5049,4.828 18.223,6.0965 5.7187,1.2678 11.2364,1.8467 16.3091,1.5355 5.0732,-0.3119 9.7015,-1.5137 14.0179,-3.16 4.3164,-1.6463 8.3211,-3.7382 15.0182,-6.8976 6.6978,-3.1593 16.0869,-7.3868 23.7183,-10.0563 7.632,-2.6701 13.5063,-3.783 18.935,-4.2946 5.4293,-0.5117 10.4129,-0.4233 15.686,0.356 5.2737,0.7786 10.8362,2.2469 16.3097,4.116 5.4735,1.8691 10.8573,4.1384 16.2642,6.6972 5.4069,2.5587 10.8356,5.4068 15.9973,7.4764 5.1623,2.0689 10.0575,3.3597 14.5962,4.116 4.5392,0.7562 8.7218,0.979 13.4391,0.6678 4.7172,-0.3118 9.9679,-1.1577 14.7294,-2.5811 4.7614,-1.4241 9.0336,-3.427 15.5304,-6.564 6.4967,-3.1376 15.2192,-7.4092 22.0719,-9.9903 6.8528,-2.5812 11.8371,-3.4712 16.9097,-4.0494 5.0733,-0.5789 10.235,-0.8453 15.0412,-0.5559 4.8063,0.2889 9.2559,1.1347 14.1954,2.6254 4.9395,1.4907 10.3687,3.6262 16.4205,6.3629 6.0517,2.7368 12.727,6.0747 17.9777,8.4113 5.2513,2.3359 9.0779,3.6704 13.0607,4.5386 2.7343,0.5958 5.5425,0.9712 8.2714,1.1619 1.8951,-7.6229 3.6147,-15.3155 5.1526,-23.0746 -0.4868,0.005 -0.9803,0.006 -1.478,6e-4 -3.8248,-0.043 -7.9632,-0.4432 -11.946,-1.3109 -3.9828,-0.8682 -7.8094,-2.2027 -13.0607,-4.5386 -5.2507,-2.3365 -11.926,-5.6745 -17.9777,-8.4113 -6.0518,-2.7367 -11.481,-4.8722 -16.4205,-6.3629 -4.9395,-1.4907 -9.3891,-2.3365 -14.1954,-2.6253 -4.8062,-0.2894 -9.9679,-0.023 -15.0412,0.5558 -5.0726,0.5782 -10.0569,1.4683 -16.9097,4.0494 -6.8527,2.5811 -15.5752,6.8528 -22.0719,9.9903 -6.4968,3.137 -10.769,5.1399 -15.5304,6.564 -4.7615,1.4235 -10.0122,2.2693 -14.7294,2.5811 z" />
    <path
       id="path82"
       style="fill:#d41c1e;fill-rule:evenodd"
       d="m 180.0446,708.7201 c 0,-291.9145 236.6437,-528.5582 528.5581,-528.5582 291.9145,0 528.5582,236.6437 528.5582,528.5582 0,291.9144 -236.6437,528.5581 -528.5582,528.5581 -291.9144,0 -528.5581,-236.6437 -528.5581,-528.5581 z m 528.5581,577.5168 c 318.9538,0 577.5169,-258.5631 577.5169,-577.5168 0,-318.9537 -258.5631,-577.5168 -577.5169,-577.5168 -318.9537,0 -577.5168,258.5631 -577.5168,577.5168 0,318.9537 258.5631,577.5168 577.5168,577.5168 z" />
    <path
       id="path84"
       style="fill:#d41c1e;fill-rule:evenodd"
       d="m 944.9564,1098.8032 c -158.4896,0 -316.9799,0 -475.4695,0 -9.4085,16.5464 -18.817,33.0928 -28.2254,49.6392 77.6533,48.154 169.2507,75.9562 267.3412,75.9562 97.8817,0 189.298,-27.6841 266.8454,-75.6492 -10.1641,-16.6488 -20.3276,-33.2975 -30.4917,-49.9462 z m -336.4798,93.742 3.8672,-20.1738 c 0.5976,-3.1188 1.8328,-5.3694 3.6976,-6.7632 1.874,-1.3914 4.2959,-1.7976 7.2766,-1.2261 2.9802,0.571 5.1266,1.8528 6.4453,3.8569 1.3114,1.9926 1.6729,4.5489 1.0753,7.6683 l -0.7254,3.7843 -6.0904,-1.168 0.7974,-4.1614 c 0.4868,-2.5382 -0.3118,-4.0119 -2.4068,-4.4133 -2.1131,-0.4051 -3.4185,0.6654 -3.9071,3.212 l -4.0167,20.9573 c -0.485,2.5291 0.3342,3.9967 2.4467,4.4018 2.0949,0.4014 3.3804,-0.663 3.8654,-3.1921 l 1.0662,-5.5643 6.0905,1.168 -0.9888,5.158 c -0.5976,3.1194 -1.8806,5.37 -3.8363,6.7371 -1.9659,1.3739 -4.4339,1.771 -7.4146,1.2001 -2.9808,-0.5716 -5.0805,-1.8449 -6.3072,-3.8309 -1.2176,-1.9841 -1.5325,-4.5319 -0.9349,-7.6507 z m 18.4827,13.0843 12.0417,-38.1044 9.4236,1.4066 0.393,39.9595 -6.1341,-0.9149 -0.0121,-7.2409 -7.4619,-1.1134 -2.1161,6.923 -6.1341,-0.9155 z m 9.8396,-11.1862 5.864,0.8756 -0.0254,-19.945 -5.8386,19.0694 z m 14.4842,14.5938 3.9386,-39.2675 19.3534,1.9412 -3.9386,39.2674 -6.171,-0.6194 3.3761,-33.6577 -7.012,-0.7029 -3.3761,33.6577 -6.1704,-0.6188 z m 24.0197,2.23 1.785,-39.4243 17.3456,0.7853 -0.2549,5.6321 -11.151,-0.505 -0.4565,10.0812 3.6044,0.1629 c 3.0788,0.1398 5.3693,1.0711 6.8709,2.8039 1.5022,1.7329 2.1815,4.1808 2.038,7.3535 l -0.1925,4.2432 c -0.1435,3.1721 -1.0414,5.5492 -2.6932,7.1397 -1.6523,1.5894 -4.0179,2.3105 -7.1052,2.1707 l -9.7906,-0.4432 z m 6.4502,-5.3518 3.5953,0.1628 c 1.0511,0.048 1.8521,-0.1986 2.4043,-0.7477 0.5601,-0.548 0.8665,-1.484 0.927,-2.8264 l 0.2271,-5.0127 c 0.0605,-1.3417 -0.1593,-2.3014 -0.6685,-2.8984 -0.5001,-0.597 -1.2757,-0.9137 -2.3268,-0.9615 l -3.5953,-0.1629 -0.5631,12.4468 z m 16.3708,-3.1751 0.0775,-20.5408 c 0.0121,-3.1569 0.8386,-5.597 2.4703,-7.319 1.6318,-1.7134 3.9659,-2.5696 6.9914,-2.5581 3.0347,0.012 5.3524,0.8846 6.9709,2.6108 1.6105,1.7347 2.4086,4.1808 2.397,7.3378 l -0.0775,20.5401 c -0.0121,3.1569 -0.8288,5.597 -2.4521,7.3196 -1.6318,1.7135 -3.9562,2.5696 -6.9908,2.5581 -3.0256,-0.011 -5.3524,-0.8852 -6.9721,-2.6108 -1.6184,-1.7347 -2.4267,-4.1808 -2.4146,-7.3377 z m 6.2001,0.3899 c -0.0103,2.6023 1.0656,3.9126 3.2168,3.921 2.1331,0.01 3.2,-1.2945 3.2103,-3.8968 l 0.0799,-21.3012 c 0.01,-2.5842 -1.0475,-3.8853 -3.1806,-3.8932 -2.1512,-0.01 -3.2368,1.2848 -3.2465,3.869 l -0.0799,21.3012 z m 16.599,9.0403 -1.7897,-39.4236 9.1232,-0.4142 c 3.0601,-0.1386 5.4075,0.5916 7.032,2.1918 1.6245,1.5912 2.5037,3.978 2.6478,7.1507 l 0.2319,5.1156 c 0.1441,3.1733 -0.5159,5.6201 -1.989,7.3523 -1.4731,1.7317 -3.7358,2.6617 -6.7959,2.8003 l -2.9377,0.1338 0.6727,14.8124 -6.1953,0.2809 z m 5.2671,-20.7254 2.9474,-0.1338 c 1.0227,-0.046 1.7698,-0.3627 2.2421,-0.9572 0.4716,-0.5861 0.6721,-1.564 0.6103,-2.916 l -0.2676,-5.904 c -0.0618,-1.352 -0.3494,-2.2978 -0.8725,-2.8385 -0.5225,-0.531 -1.2957,-0.7786 -2.3184,-0.732 l -2.9474,0.1338 0.6061,13.3477 z m 15.003,25.1557 -1.0142,-10.7763 2.4885,-0.2343 c 0.4638,-0.686 0.7805,-1.4325 0.9325,-2.2209 0.152,-0.798 0.1992,-1.8025 0.1423,-3.0049 l -1.5682,-28.7038 17.5121,-1.6475 3.1691,33.6777 2.6943,-0.2536 1.0142,10.7768 -6.1746,0.5806 -0.4862,-5.1634 -13.022,1.2248 0.4862,5.1641 -6.174,0.5807 z m 7.4425,-11.5719 8.0456,-0.7574 -2.6411,-28.065 -5.1641,0.4862 1.0305,22.9875 c 0.0599,1.4386 -0.0151,2.5496 -0.224,3.3337 -0.2095,0.7841 -0.5528,1.4489 -1.0469,2.015 z m 19.1663,-5.8016 -2.658,-20.3682 c -0.4087,-3.1303 0.0853,-5.6587 1.4731,-7.5829 1.3896,-1.9158 3.5886,-3.0746 6.5888,-3.4664 3.0092,-0.3923 5.4226,0.1641 7.2566,1.659 1.8267,1.5052 2.9438,3.823 3.3525,6.9533 l 2.6586,20.3682 c 0.4081,3.1303 -0.0763,5.6575 -1.4555,7.5805 -1.389,1.9157 -3.579,3.0734 -6.5882,3.4663 -3.0001,0.3912 -5.4226,-0.164 -7.2572,-1.659 -1.8352,-1.504 -2.962,-3.8205 -3.3707,-6.9508 z m 6.1964,-0.4396 c 0.3373,2.5805 1.5779,3.7364 3.711,3.4579 2.1149,-0.2761 2.9989,-1.7093 2.6623,-4.2898 l -2.7568,-21.122 c -0.3342,-2.5624 -1.5554,-3.7109 -3.6704,-3.4348 -2.133,0.2785 -3.037,1.7044 -2.7028,4.2667 l 2.7567,21.122 z m 17.6315,6.5936 -7.207,-38.8006 9.2008,-1.7093 c 3.123,-0.58 5.5401,-0.2736 7.2614,0.9161 1.722,1.1904 2.8688,3.2999 3.4319,6.3297 l 0.2573,1.3859 c 0.7357,3.9628 -0.092,6.8122 -2.4933,8.5487 3.2574,0.6085 5.2857,3.0891 6.0971,7.4588 l 0.5885,3.1685 c 0.5558,2.9934 0.195,5.4208 -1.0838,7.2832 -1.2794,1.8625 -3.4336,3.0746 -6.464,3.6377 l -9.5889,1.7813 z m 5.0678,-6.6753 3.4918,-0.6485 c 1.0626,-0.1974 1.8037,-0.6315 2.213,-1.3096 0.4202,-0.6709 0.4952,-1.7075 0.2379,-3.0934 l -0.6297,-3.3901 c -0.3275,-1.7643 -0.8616,-2.9365 -1.59,-3.5178 -0.7277,-0.5721 -1.7982,-0.7271 -3.2023,-0.4662 l -2.7343,0.508 2.2136,11.9176 z m -3.2435,-17.4607 2.3837,-0.4426 c 1.2103,-0.2246 2.0659,-0.709 2.5606,-1.441 0.5043,-0.7339 0.6133,-1.8437 0.339,-3.3217 l -0.4032,-2.1712 c -0.2573,-1.3853 -0.686,-2.3571 -1.2945,-2.9039 -0.6079,-0.5467 -1.4532,-0.7241 -2.5339,-0.5231 l -2.9566,0.5492 1.9049,10.2543 z m -150.7221,-28.8291 0,-39.4636 19.4503,0 0,39.4636 -6.2013,0 0,-33.826 -7.0471,0 0,33.826 -6.2019,0 z m 24.0634,0 0,-39.4636 9.1336,0 c 3.0631,0 5.3742,0.8362 6.9248,2.5085 1.55,1.6632 2.3208,4.0875 2.3208,7.2633 l 0,5.1211 c 0,3.1757 -0.7708,5.5903 -2.3208,7.2536 -1.5506,1.6632 -3.8526,2.4903 -6.9157,2.4903 l -2.9408,0 0,14.8268 -6.2019,0 z m 6.2019,-20.465 2.9505,0 c 1.0238,0 1.7849,-0.2816 2.2832,-0.8549 0.4977,-0.5637 0.7423,-1.5313 0.7423,-2.8845 l 0,-5.9101 c 0,-1.3532 -0.2446,-2.3117 -0.7423,-2.8754 -0.4983,-0.5546 -1.2594,-0.8361 -2.2832,-0.8361 l -2.9505,0 0,13.361 z m 14.5447,11.0033 0,-20.5401 c 0,-3.157 0.818,-5.6001 2.4431,-7.3293 1.6257,-1.7196 3.9562,-2.5836 6.9817,-2.5836 3.0347,0 5.3555,0.864 6.9812,2.5836 1.616,1.7292 2.4243,4.1723 2.4243,7.3293 l 0,20.5401 c 0,3.1569 -0.8083,5.6 -2.4243,7.3286 -1.6257,1.7196 -3.9465,2.5842 -6.9812,2.5842 -3.0255,0 -5.356,-0.8646 -6.9817,-2.5842 -1.6251,-1.7286 -2.4431,-4.1717 -2.4431,-7.3286 z m 6.2019,0.3663 c 0,2.6029 1.0802,3.9089 3.232,3.9089 2.1331,0 3.1951,-1.306 3.1951,-3.9089 l 0,-21.3012 c 0,-2.5842 -1.062,-3.8805 -3.1951,-3.8805 -2.1518,0 -3.232,1.2963 -3.232,3.8805 l 0,21.3012 z m 16.6306,9.0954 0,-39.4636 6.2018,0 0,17.204 8.1182,-17.204 6.1922,0 -8.6165,17.5896 8.6165,21.874 -6.352,0 -6.0323,-15.7102 -1.9261,3.5983 0,12.1119 -6.2018,0 z m 21.6772,0 6.286,-39.4636 9.5277,0 6.2861,39.4636 -6.2013,0 -1.0808,-7.1597 -7.5448,0 -1.0711,7.1597 -6.2018,0 z m 8.0806,-12.5157 5.9294,0 -2.9692,-19.7228 -2.9602,19.7228 z m 14.6773,-21.3103 0,-5.6376 19.1682,0 0,5.6376 -6.4835,0 0,33.826 -6.2012,0 0,-33.826 -6.4835,0 z" />
    <path
       id="path86"
       style="fill:#d41c1e;fill-rule:evenodd"
       d="m 408.1105,994.0833 0,-74.9923 c 0,-11.5954 2.8815,-20.5153 8.6105,-26.7928 5.7635,-6.2782 14.1681,-9.4 25.2489,-9.4 11.0808,0 19.6573,3.1218 25.7641,9.4 6.0717,6.2436 9.1251,15.1629 9.1251,26.7583 l 0,14.0652 -22.6417,0 0,-15.4717 c 0,-9.4339 -3.8768,-14.1681 -11.6638,-14.1681 -7.8561,0 -11.8013,4.7342 -11.8013,14.2026 l 0,77.9083 c 0,9.3999 3.9452,14.0996 11.8013,14.0996 7.787,0 11.6638,-4.6997 11.6638,-14.0996 l 0,-20.6867 22.6417,0 0,19.1772 c 0,11.5955 -3.0534,20.5492 -9.1251,26.7929 -6.1068,6.2781 -14.6833,9.4 -25.7641,9.4 -11.0808,0 -19.4854,-3.1219 -25.2489,-9.4 -5.729,-6.2782 -8.6105,-15.1974 -8.6105,-26.7929 z m 81.236,34.546 0,-144.0842 34.1687,0 c 11.5954,0 20.0691,2.7101 25.4548,8.1303 5.3863,5.4202 8.0964,13.7564 8.0964,25.0091 l 0,5.1459 c 0,14.7167 -4.8717,24.391 -14.6489,29.0223 11.2867,4.357 16.9127,14.6143 16.9127,30.841 l 0,11.7668 c 0,11.1153 -2.9159,19.5889 -8.7479,25.4209 -5.8319,5.8319 -14.3739,8.7479 -25.6261,8.7479 l -35.6097,0 z m 22.6417,-20.5837 12.968,0 c 3.9447,0 6.8952,-1.0633 8.8164,-3.2248 1.9556,-2.1264 2.9159,-5.7974 2.9159,-10.9434 l 0,-12.5902 c 0,-6.5524 -1.1322,-11.1153 -3.3616,-13.688 -2.2299,-2.5387 -5.9694,-3.8078 -11.1837,-3.8078 l -10.155,0 0,44.2542 z m 0,-64.8379 8.8514,0 c 4.4938,0 7.89,-1.1661 10.1544,-3.4645 2.2984,-2.299 3.4306,-6.2098 3.4306,-11.6984 l 0,-8.0619 c 0,-5.1459 -0.8924,-8.9198 -2.7101,-11.2866 -1.8182,-2.3675 -4.7342,-3.5681 -8.7485,-3.5681 l -10.9778,0 0,38.0795 z m 59.0404,50.8756 0,-74.9923 c 0,-11.527 2.9844,-20.4462 8.9193,-26.7589 5.9348,-6.2776 14.443,-9.4339 25.4892,-9.4339 11.0808,0 19.5544,3.1563 25.4893,9.4339 5.9004,6.3127 8.8508,15.2319 8.8508,26.7589 l 0,74.9923 c 0,11.527 -2.9504,20.4463 -8.8508,26.7584 -5.9349,6.2781 -14.4085,9.4345 -25.4893,9.4345 -11.0462,0 -19.5544,-3.1564 -25.4892,-9.4345 -5.9349,-6.3121 -8.9193,-15.2314 -8.9193,-26.7584 z m 22.6417,1.3381 c 0,9.5023 3.9453,14.271 11.8013,14.271 7.7871,0 11.6639,-4.7687 11.6639,-14.271 l 0,-77.7714 c 0,-9.4339 -3.8768,-14.1681 -11.6639,-14.1681 -7.856,0 -11.8013,4.7342 -11.8013,14.1681 l 0,77.7714 z m 60.7213,33.2079 23.2254,0 19.7596,-65.8327 9.1597,-35.4723 -0.686,101.305 20.3778,0 0,-143.9474 -24.9062,0 -18.4222,59.3492 -8.3016,31.733 0,-91.0477 -20.2065,0 0,143.9129 z m 12.5563,-175.9885 13.9968,0 c 0.2742,3.5336 1.1661,5.9688 2.6756,7.3069 1.4749,1.3036 3.8078,1.9557 6.9641,1.9557 3.2587,0 5.729,-0.6521 7.4098,-1.9557 1.6814,-1.3381 2.6417,-3.7733 2.916,-7.3069 l 13.7909,0 c 0,7.101 -2.058,12.6587 -6.1407,16.6724 -4.0822,3.9797 -10.086,5.9693 -17.976,5.9693 -7.7192,0 -13.5166,-1.9896 -17.4619,-5.9348 -3.9107,-3.9453 -5.9687,-9.5375 -6.1746,-16.7069 z m 105.6965,141.4425 0,-74.9923 c 0,-11.5954 2.8814,-20.5153 8.6105,-26.7928 5.7635,-6.2782 14.1681,-9.4 25.2488,-9.4 11.0808,0 19.6574,3.1218 25.7642,9.4 6.0717,6.2436 9.1251,15.1629 9.1251,26.7583 l 0,14.0652 -22.6417,0 0,-15.4717 c 0,-9.4339 -3.8769,-14.1681 -11.6639,-14.1681 -7.856,0 -11.8013,4.7342 -11.8013,14.2026 l 0,77.9083 c 0,9.3999 3.9453,14.0996 11.8013,14.0996 7.787,0 11.6639,-4.6997 11.6639,-14.0996 l 0,-20.6867 22.6417,0 0,19.1772 c 0,11.5955 -3.0534,20.5492 -9.1251,26.7929 -6.1068,6.2781 -14.6834,9.4 -25.7642,9.4 -11.0807,0 -19.4853,-3.1219 -25.2488,-9.4 -5.7291,-6.2782 -8.6105,-15.1974 -8.6105,-26.7929 z m 75.2672,34.546 22.9505,-144.0842 34.7857,0 22.9505,144.0842 -22.6417,0 -3.9453,-26.1408 -27.5473,0 -3.9107,26.1408 -22.6417,0 z m 29.5029,-45.6952 21.6469,0 -10.841,-72.0079 -10.8059,72.0079 z m 60.1721,45.6952 0,-144.0842 71.0131,0 0,144.0842 -22.6418,0 0,-123.5011 -25.7296,0 0,123.5011 -22.6417,0 z" />
  </g>
</svg>
